<svg width="0" height="0" class="hidden">
  <symbol fill="none" xmlns="http://www.w3.org/2000/svg" viewBox="0 0 20 20" id="in">
    <g clip-path="url(#clip0_2_1222)">
      <path d="M17.6022 0H2.39782C1.08992 0 0 1.03542 0 2.34332V17.6567C0 18.9646 1.08992 20 2.39782 20H17.6022C18.9101 20 20 18.9646 20 17.6567V2.34332C20 1.03542 18.9101 0 17.6022 0ZM14.3869 3.10627C14.3869 2.77929 14.6594 2.50681 14.9864 2.50681H16.8937C17.2207 2.50681 17.4932 2.77929 17.4932 3.10627V4.95913C17.4932 5.2861 17.2207 5.55858 16.8937 5.55858H15.0409C14.7139 5.55858 14.4414 5.2861 14.4414 4.95913L14.3869 3.10627ZM10.0272 6.15804C12.1526 6.15804 13.8965 7.84741 13.8965 9.97275C13.8965 12.0981 12.1526 13.7875 10.0272 13.7875C7.90191 13.7875 6.15804 12.0981 6.15804 9.97275C6.15804 7.90191 7.90191 6.15804 10.0272 6.15804ZM18.0926 17.4932C18.0926 17.8202 17.8202 18.0926 17.4932 18.0926H2.50681C2.17984 18.0926 1.90736 17.8202 1.90736 17.4932V8.11989H4.35967C4.0327 8.61035 3.92371 9.48229 3.92371 10.0272C3.92371 13.3515 6.6485 16.0763 10.0272 16.0763C13.406 16.0763 16.1308 13.3515 16.1308 10.0272C16.1308 9.48229 16.0763 8.61035 15.6403 8.11989H18.1471L18.0926 17.4932Z" fill="#B3B3B3"></path>
    </g>
    <defs>
      <clipPath id="clip0_2_1222">
        <rect width="20" height="20" fill="white"></rect>
      </clipPath>
    </defs>
  </symbol>
  <symbol fill="currentColor" xmlns="http://www.w3.org/2000/svg" viewBox="0 0 13 15" id="phone__svg">
    <g clip-path="url(#clip0_1_51)">
      <path d="M12.669 13.1545C12.4344 13.6557 11.9652 13.9063 11.4959 14.1569C10.9094 14.5327 10.4402 14.658 9.85367 14.658C9.03253 14.658 8.21139 14.2822 7.50756 14.0316C6.92103 13.781 6.45181 13.5304 5.86528 13.2798C4.223 12.1522 2.34611 10.1474 1.40767 8.51861C1.05575 7.89214 0.821139 7.39096 0.586528 6.76449C0.351917 5.88743 0 5.13567 0 4.13331C0 3.50684 0.117306 2.88037 0.469222 2.25389C0.703833 1.75272 0.938445 1.25154 1.40767 1.00095C1.75958 1.00095 2.34611 0.875656 2.69803 0.875656C2.81533 0.875656 2.81533 0.875656 2.93264 0.875656C3.16725 1.00095 3.28456 1.37683 3.40186 1.62742C3.63647 2.25389 3.98839 2.75507 4.223 3.38154C4.45761 3.63213 4.69222 3.88272 4.69222 4.13331C4.69222 4.75978 3.04994 5.63684 3.04994 6.13802C3.04994 6.38861 3.28456 6.76449 3.40186 7.01508C4.34031 8.7692 5.51336 10.0221 7.15564 11.0245C7.39025 11.1498 7.74217 11.4004 7.97678 11.4004C8.446 11.4004 9.26714 9.64626 9.85367 9.64626C10.0883 9.64626 10.3229 9.89685 10.5575 10.1474C11.0267 10.5233 11.6133 10.7739 12.0825 11.1498C12.3171 11.2751 12.669 11.4004 12.7863 11.651C12.7863 11.7763 12.7863 11.7763 12.7863 11.9016C12.9036 12.1522 12.7863 12.7786 12.669 13.1545Z" fill="currentColor"></path>
    </g>
    <defs>
      <clipPath id="clip0_1_51">
        <rect width="12.9036" height="13.7824" fill="white" transform="translate(0 0.875656)"></rect>
      </clipPath>
    </defs>
  </symbol>
  <symbol fill="none" xmlns="http://www.w3.org/2000/svg" viewBox="0 0 20 20" id="tv">
    <g clip-path="url(#clip0_2_1219)">
      <path d="M19.455 2.01613C18.6376 2.5066 17.7657 2.83357 16.8392 3.05155C16.0763 2.23412 15.0409 1.74365 13.842 1.74365C11.5531 1.74365 9.75477 3.65101 9.75477 5.93984C9.75477 6.26681 9.80926 6.59379 9.86376 6.92076C6.43052 6.70278 3.43324 5.01341 1.41689 2.4521C1.08992 3.05155 0.871935 3.8145 0.871935 4.57744C0.871935 6.04883 1.58038 7.30224 2.7248 8.06518C2.07084 8.06518 1.41689 7.84719 0.871935 7.52022V7.62921C0.871935 9.64556 2.28883 11.3894 4.14169 11.7709C3.81471 11.8799 3.43324 11.9344 3.05177 11.9344C2.77929 11.9344 2.50681 11.9344 2.28883 11.8799C2.83379 13.5693 4.30518 14.7682 6.10354 14.8227C4.68665 15.9671 2.94278 16.621 0.980926 16.621C0.653951 16.621 0.326975 16.621 0 16.5665C1.79837 17.7654 3.9782 18.4739 6.26703 18.4739C13.842 18.4739 17.9292 12.0434 17.9292 6.4848C17.9292 6.32131 17.9292 6.10332 17.9292 5.93984C18.7466 5.34038 19.455 4.63194 20 3.76C19.2916 4.08698 18.4741 4.30496 17.6567 4.41395C18.4741 3.8145 19.1281 2.99706 19.455 2.01613Z" fill="#B3B3B3"></path>
    </g>
    <defs>
      <clipPath id="clip0_2_1219">
        <rect width="20" height="20" fill="white"></rect>
      </clipPath>
    </defs>
  </symbol>
  <symbol fill="none" xmlns="http://www.w3.org/2000/svg" viewBox="0 0 20 20" id="vk">
    <g clip-path="url(#clip0_2_1228)">
      <path d="M19.891 14.6049C19.891 14.5504 19.8365 14.4959 19.8365 14.4959C19.5095 13.8965 18.8011 13.079 17.8202 12.2071C17.3842 11.7711 17.1117 11.4986 17.0027 11.3351C16.7847 11.0627 16.7302 10.7902 16.8392 10.5177C16.9482 10.2997 17.2207 9.86376 17.7657 9.15531C18.0381 8.77384 18.2561 8.50136 18.4196 8.28338C19.6185 6.703 20.1635 5.66757 20 5.23161L19.9455 5.12261C19.891 4.95913 19.782 4.90463 19.6185 4.85013C19.455 4.79564 19.2371 4.79564 18.9646 4.85013H15.9673C15.9128 4.85013 15.8583 4.85013 15.7493 4.85013C15.6403 4.85013 15.6403 4.90463 15.6403 4.90463H15.5858L15.5313 4.95913C15.4768 4.95913 15.4768 5.01362 15.4223 5.06812C15.3678 5.12261 15.3678 5.17711 15.3134 5.23161C14.9864 6.04904 14.6049 6.86648 14.2234 7.57493C13.951 8.0109 13.733 8.39237 13.515 8.71934C13.297 9.04632 13.1335 9.2643 12.97 9.42779C12.8065 9.59128 12.6975 9.70027 12.5886 9.80926C12.4796 9.91825 12.3706 9.91825 12.3161 9.91825C12.2616 9.91825 12.2071 9.86376 12.1526 9.86376C12.0436 9.80926 11.9891 9.70027 11.9346 9.59128C11.8801 9.48229 11.8256 9.3733 11.8256 9.20981C11.8256 9.04632 11.7711 8.88283 11.7711 8.77384C11.7711 8.66485 11.7711 8.50136 11.7711 8.28338C11.7711 8.06539 11.7711 7.90191 11.7711 7.84741C11.7711 7.57493 11.7711 7.30245 11.7711 6.97548C11.7711 6.6485 11.7711 6.43052 11.7711 6.26703C11.7711 6.10354 11.7711 5.88556 11.7711 5.66757C11.7711 5.44959 11.7711 5.2861 11.7166 5.17711C11.7166 5.06812 11.6621 4.95913 11.6076 4.85013C11.5531 4.74114 11.4986 4.63215 11.3896 4.57766C11.2807 4.52316 11.1717 4.46866 11.0627 4.41417C10.6812 4.30518 10.2452 4.30518 9.64578 4.30518C8.33788 4.30518 7.52044 4.35967 7.13896 4.57766C6.97548 4.63215 6.86648 4.74114 6.75749 4.90463C6.6485 5.06812 6.59401 5.12261 6.703 5.17711C7.13896 5.23161 7.41144 5.39509 7.57493 5.61308L7.62943 5.72207C7.68392 5.83106 7.73842 5.99455 7.79292 6.21253C7.84741 6.43052 7.84741 6.703 7.90191 6.97548C7.9564 7.46594 7.9564 7.90191 7.90191 8.28338C7.84741 8.66485 7.84741 8.93733 7.79292 9.10082C7.73842 9.3188 7.73842 9.48229 7.62943 9.59128C7.57493 9.70027 7.52044 9.80926 7.52044 9.80926C7.52044 9.86376 7.46594 9.86376 7.46594 9.86376C7.35695 9.91825 7.30245 9.91825 7.19346 9.91825C7.08447 9.91825 6.97548 9.86376 6.86649 9.75477C6.703 9.64577 6.59401 9.53678 6.43052 9.3733C6.26703 9.20981 6.10354 8.99182 5.94005 8.66485C5.77657 8.33787 5.55858 8.0109 5.3406 7.57493L5.17711 7.24795C5.06812 7.02997 4.90463 6.75749 4.74114 6.37602C4.57766 5.99455 4.41417 5.66757 4.25068 5.2861C4.19619 5.17711 4.08719 5.06812 3.9782 4.95913H3.92371C3.86921 4.90463 3.81471 4.90463 3.76022 4.85013C3.70572 4.85013 3.59673 4.79564 3.54223 4.79564H0.708447C0.381471 4.79564 0.163488 4.90463 0.0544959 5.01362V5.06812C0 5.12261 0 5.17711 0 5.23161C0 5.2861 0 5.39509 0.0544959 5.50409C0.490463 6.48501 0.92643 7.41144 1.41689 8.33787C1.90736 9.2643 2.34332 9.97275 2.6703 10.5177C3.05177 11.0627 3.37875 11.6076 3.76022 12.0981C4.14169 12.5886 4.35967 12.9155 4.52316 13.0245C4.63215 13.188 4.74114 13.2425 4.79564 13.3515L5.06812 13.624C5.23161 13.7875 5.50409 14.0054 5.77657 14.2234C6.10354 14.4414 6.43052 14.6594 6.86649 14.9319C7.24796 15.1499 7.73842 15.3678 8.22888 15.4768C8.77384 15.6403 9.26431 15.6948 9.75477 15.6403H10.9537C11.1717 15.6403 11.3896 15.5313 11.4986 15.4223L11.5531 15.3678C11.6076 15.3133 11.6076 15.2589 11.6076 15.1499C11.6076 15.0409 11.6621 14.9864 11.6621 14.8774C11.6621 14.6049 11.6621 14.3324 11.7166 14.0599C11.7711 13.842 11.8256 13.624 11.8801 13.515C11.9346 13.406 12.0436 13.297 12.0981 13.188C12.2071 13.079 12.2616 13.079 12.2616 13.0245C12.3161 13.0245 12.3161 12.97 12.3706 12.97C12.5341 12.9155 12.752 12.97 12.97 13.1335C13.188 13.297 13.406 13.515 13.624 13.733C13.842 13.951 14.0599 14.2234 14.3324 14.5504C14.6049 14.8229 14.8774 15.0954 15.0409 15.2044L15.2589 15.3133C15.4223 15.4223 15.5858 15.4768 15.8038 15.5313C16.0218 15.5858 16.2398 15.6403 16.4033 15.5858L19.0736 15.5313C19.346 15.5313 19.564 15.4768 19.673 15.4223C19.8365 15.3133 19.891 15.2589 19.9455 15.1499C20 15.0409 20 14.9319 19.9455 14.7684C19.9455 14.7684 19.9455 14.6594 19.891 14.6049Z" fill="#B3B3B3"></path>
    </g>
    <defs>
      <clipPath id="clip0_2_1228">
        <rect width="20" height="20" fill="white"></rect>
      </clipPath>
    </defs>
  </symbol>
  <symbol fill="none" xmlns="http://www.w3.org/2000/svg" viewBox="0 0 20 20" id="f">
    <g clip-path="url(#clip0_2_1225)">
      <path d="M20 18.9101C20 19.5095 19.5095 20 18.9101 20H13.7875V12.2616H16.4033L16.7847 9.26431H13.7875V7.35695C13.7875 6.48501 14.0054 5.88556 15.2589 5.88556H16.8392V3.16076C16.5668 3.10627 15.6403 3.05177 14.4959 3.05177C12.2071 3.05177 10.6267 4.46866 10.6267 7.02997V9.26431H8.0109V12.2616H10.6267V20H1.08992C0.490463 20 0 19.5095 0 18.9101V1.08992C0 0.490463 0.490463 0 1.08992 0H18.9101C19.5095 0 20 0.490463 20 1.08992V18.9101Z" fill="#292929"></path>
    </g>
    <defs>
      <clipPath id="clip0_2_1225">
        <rect width="20" height="20" fill="white"></rect>
      </clipPath>
    </defs>
  </symbol>
 
  <symbol fill="none" xmlns="http://www.w3.org/2000/svg" viewBox="0 0 56 40" id="icon">
    <path d="M12.5753 18.552C11.5673 18.552 10.6793 18.376 9.91133 18.024C9.14335 17.672 8.55135 17.184 8.13535 16.56C7.71935 15.92 7.51135 15.184 7.51135 14.352C7.51135 13.648 7.65534 13.008 7.94335 12.432C8.24734 11.856 8.64734 11.4 9.14334 11.064C9.65534 10.728 10.2153 10.56 10.8233 10.56C11.3833 10.56 11.8553 10.704 12.2393 10.992C12.6233 11.264 12.8633 11.648 12.9593 12.144C12.1273 12.144 11.4633 12.368 10.9673 12.816C10.4713 13.248 10.2233 13.84 10.2233 14.592C10.2233 15.28 10.4313 15.832 10.8473 16.248C11.2633 16.664 11.8153 16.872 12.5033 16.872C13.3513 16.872 14.0473 16.592 14.5913 16.032C15.1513 15.456 15.4313 14.736 15.4313 13.872C15.4313 13.12 15.2233 12.408 14.8073 11.736C14.3913 11.064 13.7673 10.248 12.9353 9.288C12.0713 8.296 11.4153 7.448 10.9673 6.744C10.5353 6.024 10.3193 5.24 10.3193 4.392C10.3193 3.56 10.5513 2.816 11.0153 2.16C11.4793 1.488 12.1193 0.960001 12.9353 0.576001C13.7513 0.192001 14.6713 0 15.6953 0C16.9913 0 18.0233 0.304001 18.7913 0.912001C19.5753 1.52 19.9673 2.336 19.9673 3.36C19.9673 4.032 19.7993 4.576 19.4633 4.992C19.1273 5.408 18.6873 5.616 18.1433 5.616C17.5353 5.616 17.0473 5.368 16.6793 4.872C16.9833 4.648 17.2233 4.352 17.3993 3.984C17.5753 3.616 17.6633 3.232 17.6633 2.832C17.6633 2.32 17.5113 1.912 17.2073 1.608C16.9033 1.304 16.4873 1.152 15.9593 1.152C15.3193 1.152 14.7913 1.384 14.3753 1.848C13.9753 2.296 13.7753 2.872 13.7753 3.576C13.7753 4.216 13.9593 4.816 14.3273 5.376C14.6953 5.92 15.2713 6.624 16.0553 7.488C16.6953 8.176 17.2073 8.768 17.5913 9.264C17.9913 9.76 18.3273 10.336 18.5993 10.992C18.8873 11.632 19.0313 12.328 19.0313 13.08C19.0313 14.104 18.7433 15.032 18.1673 15.864C17.6073 16.696 16.8313 17.352 15.8393 17.832C14.8633 18.312 13.7753 18.552 12.5753 18.552ZM22.7588 18.264C21.9908 18.264 21.3668 18.024 20.8868 17.544C20.4228 17.064 20.1908 16.344 20.1908 15.384C20.1908 14.984 20.2548 14.464 20.3828 13.824L22.0148 6.12H25.4708L23.7428 14.28C23.6948 14.52 23.6708 14.744 23.6708 14.952C23.6708 15.608 23.9108 15.936 24.3908 15.936C24.8388 15.936 25.2228 15.752 25.5428 15.384C25.8628 15 26.1188 14.48 26.3108 13.824L27.9428 6.12H31.3988L29.6708 14.28C29.6068 14.52 29.5748 14.776 29.5748 15.048C29.5748 15.368 29.6468 15.6 29.7908 15.744C29.9508 15.872 30.2068 15.936 30.5588 15.936C31.0068 15.936 31.3908 15.744 31.7108 15.36C32.0468 14.976 32.3108 14.464 32.5028 13.824H33.5108C32.9188 15.552 32.1828 16.728 31.3028 17.352C30.4388 17.96 29.5668 18.264 28.6868 18.264C27.9988 18.264 27.4468 18.072 27.0308 17.688C26.6308 17.304 26.3908 16.736 26.3108 15.984C25.7668 16.864 25.1908 17.464 24.5828 17.784C23.9908 18.104 23.3828 18.264 22.7588 18.264ZM34.132 6.12H37.588L37.276 7.608C37.82 7.128 38.308 6.76 38.74 6.504C39.188 6.248 39.668 6.12 40.18 6.12C40.692 6.12 41.092 6.296 41.38 6.648C41.684 7 41.836 7.424 41.836 7.92C41.836 8.384 41.684 8.792 41.38 9.144C41.076 9.496 40.652 9.672 40.108 9.672C39.756 9.672 39.516 9.592 39.388 9.432C39.276 9.256 39.188 9.008 39.124 8.688C39.076 8.48 39.028 8.328 38.98 8.232C38.932 8.136 38.844 8.088 38.716 8.088C38.38 8.088 38.092 8.16 37.852 8.304C37.628 8.432 37.332 8.664 36.964 9L35.044 18.12H31.588L34.132 6.12ZM39.3634 24.12C38.6114 24.12 37.9554 23.872 37.3954 23.376C36.8194 22.896 36.5314 22.28 36.5314 21.528C36.5314 20.84 36.7074 20.272 37.0594 19.824C37.4114 19.376 37.8674 19.016 38.4274 18.744C38.9874 18.488 39.7314 18.216 40.6594 17.928L43.5634 4.224C43.8834 2.688 44.4434 1.624 45.2434 1.032C46.0594 0.440001 46.9554 0.144001 47.9314 0.144001C48.6834 0.144001 49.3394 0.392001 49.8994 0.888001C50.4754 1.368 50.7634 1.984 50.7634 2.736C50.7634 3.104 50.7394 3.432 50.6914 3.72H49.5634C49.5954 3.368 49.6114 3.152 49.6114 3.072C49.6114 2.816 49.5234 2.616 49.3474 2.472C49.1714 2.328 48.9554 2.256 48.6994 2.256C48.3634 2.256 48.0354 2.408 47.7154 2.712C47.3954 3 47.1634 3.504 47.0194 4.224L46.6114 6.12H48.3634L48.1954 7.08H46.4194L43.6594 20.04C43.3394 21.592 42.7874 22.656 42.0034 23.232C41.2194 23.824 40.3394 24.12 39.3634 24.12ZM38.8114 21.984C39.4514 21.984 39.9074 21.36 40.1794 20.112L40.4914 18.72C39.6434 19.008 38.9954 19.336 38.5474 19.704C38.0834 20.088 37.8514 20.584 37.8514 21.192C37.8514 21.384 37.9474 21.56 38.1394 21.72C38.3314 21.896 38.5554 21.984 38.8114 21.984ZM3.36 39.264C2.272 39.264 1.44 39 0.864005 38.472C0.288 37.928 0 37.168 0 36.192C0 35.712 0.056 35.256 0.168 34.824L2.73601 22.8L6.28801 22.32L5.13601 27.72C5.58401 27.448 5.952 27.272 6.24001 27.192C6.52801 27.096 6.81601 27.048 7.10401 27.048C8.99201 27.048 9.93603 28.416 9.93603 31.152C9.93603 32.256 9.72001 33.44 9.288 34.704C8.872 35.952 8.168 37.024 7.17601 37.92C6.20001 38.816 4.928 39.264 3.36 39.264ZM4.70401 36.936C5.20001 36.936 5.66401 36.632 6.09601 36.024C6.52801 35.4 6.872 34.632 7.12801 33.72C7.38401 32.792 7.51201 31.904 7.51201 31.056C7.51201 30.416 7.40001 29.872 7.17601 29.424C6.95201 28.976 6.64001 28.752 6.24001 28.752C6.00001 28.752 5.728 28.792 5.42401 28.872C5.136 28.936 4.93601 29.04 4.82401 29.184L3.504 35.28C3.456 35.472 3.432 35.656 3.432 35.832C3.432 36.568 3.85601 36.936 4.70401 36.936ZM14.336 39.216C13.152 39.216 12.216 38.912 11.528 38.304C10.84 37.696 10.496 36.736 10.496 35.424C10.496 34.336 10.72 33.128 11.168 31.8C11.616 30.472 12.336 29.328 13.328 28.368C14.32 27.392 15.568 26.904 17.072 26.904C19.12 26.904 20.144 28.184 20.144 30.744V30.768C20.192 30.784 20.28 30.792 20.408 30.792C20.936 30.792 21.544 30.656 22.232 30.384C22.92 30.096 23.544 29.752 24.104 29.352L24.32 30C23.856 30.496 23.248 30.92 22.496 31.272C21.76 31.608 20.952 31.848 20.072 31.992C19.944 33.448 19.616 34.72 19.088 35.808C18.56 36.896 17.88 37.736 17.048 38.328C16.216 38.92 15.312 39.216 14.336 39.216ZM15.296 37.056C15.68 37.056 16.064 36.84 16.448 36.408C16.832 35.96 17.168 35.36 17.456 34.608C17.744 33.84 17.952 32.992 18.08 32.064C17.648 31.968 17.432 31.632 17.432 31.056C17.432 30.4 17.68 29.968 18.176 29.76C18.144 29.232 18.064 28.872 17.936 28.68C17.808 28.472 17.584 28.368 17.264 28.368C16.736 28.368 16.224 28.752 15.728 29.52C15.232 30.288 14.832 31.208 14.528 32.28C14.224 33.352 14.072 34.296 14.072 35.112C14.072 35.88 14.16 36.4 14.336 36.672C14.512 36.928 14.832 37.056 15.296 37.056ZM24.2589 39.264C23.3469 39.264 22.5869 38.952 21.9789 38.328C21.3709 37.704 21.0669 36.728 21.0669 35.4C21.0669 34.216 21.2989 32.976 21.7629 31.68C22.2429 30.368 22.9469 29.264 23.8749 28.368C24.8189 27.456 25.9389 27 27.2349 27C27.8909 27 28.3789 27.112 28.6989 27.336C29.0189 27.56 29.1789 27.856 29.1789 28.224V28.392L29.4429 27.12H32.8989L31.1709 35.28C31.1069 35.52 31.0749 35.776 31.0749 36.048C31.0749 36.736 31.4029 37.08 32.0589 37.08C32.5069 37.08 32.8909 36.872 33.2109 36.456C33.5469 36.04 33.8109 35.496 34.0029 34.824H35.0109C34.4189 36.552 33.6829 37.728 32.8029 38.352C31.9389 38.96 31.0669 39.264 30.1869 39.264C29.5149 39.264 28.9709 39.08 28.5549 38.712C28.1549 38.328 27.9149 37.776 27.8349 37.056C27.3709 37.712 26.8509 38.248 26.2749 38.664C25.7149 39.064 25.0429 39.264 24.2589 39.264ZM25.8189 36.936C26.2189 36.936 26.6109 36.752 26.9949 36.384C27.3949 36 27.6669 35.48 27.8109 34.824L28.9629 29.4C28.9629 29.192 28.8829 28.992 28.7229 28.8C28.5629 28.592 28.3149 28.488 27.9789 28.488C27.3389 28.488 26.7629 28.864 26.2509 29.616C25.7389 30.352 25.3389 31.248 25.0509 32.304C24.7629 33.344 24.6189 34.264 24.6189 35.064C24.6189 35.864 24.7309 36.376 24.9549 36.6C25.1949 36.824 25.4829 36.936 25.8189 36.936ZM35.6437 27.12H39.0997L38.7877 28.608C39.3317 28.128 39.8197 27.76 40.2517 27.504C40.6997 27.248 41.1797 27.12 41.6917 27.12C42.2037 27.12 42.6037 27.296 42.8917 27.648C43.1957 28 43.3477 28.424 43.3477 28.92C43.3477 29.384 43.1957 29.792 42.8917 30.144C42.5877 30.496 42.1637 30.672 41.6197 30.672C41.2677 30.672 41.0277 30.592 40.8997 30.432C40.7877 30.256 40.6997 30.008 40.6357 29.688C40.5877 29.48 40.5397 29.328 40.4917 29.232C40.4437 29.136 40.3557 29.088 40.2277 29.088C39.8917 29.088 39.6037 29.16 39.3637 29.304C39.1397 29.432 38.8437 29.664 38.4757 30L36.5557 39.12H33.0997L35.6437 27.12ZM45.9152 39.264C45.0032 39.264 44.2432 38.952 43.6352 38.328C43.0272 37.704 42.7232 36.728 42.7232 35.4C42.7232 34.216 42.9552 32.976 43.4192 31.68C43.8992 30.368 44.6032 29.264 45.5312 28.368C46.4752 27.456 47.5952 27 48.8912 27C49.5472 27 50.0352 27.112 50.3552 27.336C50.6752 27.56 50.8352 27.856 50.8352 28.224V28.32L52.0112 22.8L55.5632 22.32L52.8032 35.28C52.7392 35.52 52.7072 35.752 52.7072 35.976C52.7072 36.616 53.0352 36.936 53.6912 36.936C53.9792 36.936 54.2352 36.888 54.4592 36.792C54.3952 37.592 54.1072 38.208 53.5952 38.64C53.0992 39.056 52.5072 39.264 51.8192 39.264C51.1792 39.264 50.6352 39.104 50.1872 38.784C49.7552 38.448 49.4672 37.944 49.3232 37.272C48.3632 38.6 47.2272 39.264 45.9152 39.264ZM47.4752 36.936C47.8272 36.936 48.1792 36.784 48.5312 36.48C48.8992 36.176 49.1712 35.752 49.3472 35.208L49.4432 34.824L50.6192 29.328C50.4752 28.768 50.1472 28.488 49.6352 28.488C48.9952 28.488 48.4192 28.864 47.9072 29.616C47.3952 30.352 46.9952 31.248 46.7072 32.304C46.4192 33.344 46.2752 34.264 46.2752 35.064C46.2752 35.864 46.3872 36.376 46.6112 36.6C46.8512 36.824 47.1392 36.936 47.4752 36.936Z" fill="white"></path>
  </symbol>

</svg>